Richard Strauss - Salome - Berlin 1990


Converted the DVD format of this opera available by torrent to an MKV media file.

Audio, subtitles and chapters from the DVD; DVD MPEG compressed (lightly) to AVC.


TMI:

General
Format                           : Matroska
Format version                   : Version 4 / Version 2
File size                        : 3.02 GiB
Duration                         : 1h 49mn
Overall bit rate                 : 3 958 Kbps
Encoded date                     : UTC 2013-02-05 13:49:56
Writing application              : mkvmerge v6.0.0 ('Coming Up For Air') built on 

Jan 20 2013 09:52:00
Writing library                  : libebml v1.3.0 + libmatroska v1.4.0

Video
ID                               : 1
Format                           : AVC
Format/Info                      : Advanced Video Codec
Format profile                   : High@L3.0
Format settings, CABAC           : Yes
Format settings, ReFrames        : 4 frames
Codec ID                         : V_MPEG4/ISO/AVC
Duration                         : 1h 49mn
Bit rate                         : 3 500 Kbps
Width                            : 640 pixels
Height                           : 480 pixels
Display aspect ratio             : 4:3
Frame rate mode                  : Variable
Frame rate                       : 29.970 fps
Color space                      : YUV
Chroma subsampling               : 4:2:0
Bit depth                        : 8 bits
Scan type                        : Progressive
Bits/(Pixel*Frame)               : 0.380
Stream size                      : 2.62 GiB (87%)
Writing library                  : x264 core 120
Language                         : English
Color primaries                  : BT.601-6 525, BT.1358 525, BT.1700 NTSC, SMPTE 

170M
Transfer characteristics         : BT.709-5, BT.1361
Matrix coefficients              : BT.601-6 525, BT.1358 525, BT.1700 NTSC, SMPTE 

170M

Audio
ID                               : 2
Format                           : AC-3
Format/Info                      : Audio Coding 3
Mode extension                   : CM (complete main)
Codec ID                         : A_AC3
Duration                         : 1h 49mn
Bit rate mode                    : Constant
Bit rate                         : 448 Kbps
Channel(s)                       : 2 channels
Channel positions                : Front: L R
Sampling rate                    : 48.0 KHz
Bit depth                        : 16 bits
Compression mode                 : Lossy
Stream size                      : 350 MiB (11%)
Language                         : German

Text #1
ID                               : 3
Format                           : VobSub
Muxing mode                      : zlib
Codec ID                         : S_VOBSUB
Codec ID/Info                    : The same subtitle format used on DVDs
Language                         : English

Text #2
ID                               : 4
Format                           : VobSub
Muxing mode                      : zlib
Codec ID                         : S_VOBSUB
Codec ID/Info                    : The same subtitle format used on DVDs
Language                         : German

Text #3
ID                               : 5
Format                           : VobSub
Muxing mode                      : zlib
Codec ID                         : S_VOBSUB
Codec ID/Info                    : The same subtitle format used on DVDs
Language                         : Spanish

Text #4
ID                               : 6
Format                           : VobSub
Muxing mode                      : zlib
Codec ID                         : S_VOBSUB
Codec ID/Info                    : The same subtitle format used on DVDs
Language                         : French

Text #5
ID                               : 7
Format                           : VobSub
Muxing mode                      : zlib
Codec ID                         : S_VOBSUB
Codec ID/Info                    : The same subtitle format used on DVDs
Language                         : Italian

Text #6
ID                               : 8
Format                           : VobSub
Muxing mode                      : zlib
Codec ID                         : S_VOBSUB
Codec ID/Info                    : The same subtitle format used on DVDs
Language                         : Portuguese

Text #7
ID                               : 9
Format                           : VobSub
Muxing mode                      : zlib
Codec ID                         : S_VOBSUB
Codec ID/Info                    : The same subtitle format used on DVDs
Language                         : Japanese

Menu
00:00:00.000                     : de:Wie schön ist die Prinzessin
00:06:02.628                     : de:Ich will nicht bleiben
00:15:38.671                     : de:Wo ist er, dessen Sündenbecher
00:24:34.372                     : de:Jochanaan! Ich bin verliebt
00:41:26.350                     : de:Wo ist Salome?
00:45:18.849                     : de:Salome, komm, trink Wein mit mir
00:56:33.356                     : de:Tanz für mich, Salome
01:00:38.434                     : 'Dance of the seven veils'
01:10:00.162                     : de:Ah! Herrlich! Wundervoll
01:14:06.542                     : de:Salome, ich beschwöre dich
01:21:33.755                     : de:Wer hat meinen Ring genommen?
01:25:10.205                     : de:Ah! Du wolltest mich nicht
01:33:39.447                     : de:Ah! Warum hast du mich
01:38:50.024                     : de:Ah! Ich habe deinen Mund geküßt
01:47:09.289                     : Credits
